<?xml version="1.0" standalone="no"?>
<!DOCTYPE svg PUBLIC "-//W3C//DTD SVG 20010904//EN"
 "http://www.w3.org/TR/2001/REC-SVG-20010904/DTD/svg10.dtd">
<svg version="1.0" xmlns="http://www.w3.org/2000/svg"
 width="512.000000pt" height="512.000000pt" viewBox="0 0 512.000000 512.000000"
 preserveAspectRatio="xMidYMid meet">
<metadata>
Created by potrace 1.14, written by Peter Selinger 2001-2017
</metadata>
<g transform="translate(0.000000,512.000000) scale(0.100000,-0.100000)"
fill="#000000" stroke="none">
<path d="M2316 5104 c-238 -36 -444 -139 -592 -295 -27 -30 -95 -110 -149
-179 -111 -141 -285 -360 -544 -686 -97 -121 -186 -234 -199 -251 -12 -16 -33
-43 -46 -59 -38 -46 -166 -206 -221 -276 -27 -35 -52 -65 -55 -68 -3 -3 -37
-46 -76 -95 -39 -50 -88 -108 -108 -130 -176 -189 -268 -447 -224 -625 8 -33
15 -49 42 -110 6 -13 38 -52 71 -85 80 -80 195 -137 325 -160 103 -19 181 -22
641 -22 275 -1 503 -3 506 -6 6 -7 -22 -148 -47 -242 -11 -38 -58 -207 -104
-375 -47 -168 -87 -316 -90 -330 -2 -14 -10 -47 -16 -75 -7 -27 -14 -63 -16
-80 -3 -16 -7 -36 -10 -44 -15 -44 -22 -253 -11 -341 32 -263 213 -430 552
-510 44 -11 98 -22 120 -25 22 -3 49 -7 60 -10 98 -20 615 -28 783 -12 269 26
487 93 615 191 150 114 211 254 210 476 -2 168 -37 354 -138 715 -65 231 -89
322 -126 478 -22 93 -39 173 -37 179 3 8 160 11 513 10 528 0 595 4 725 43
181 56 314 184 350 337 23 100 5 241 -46 355 -26 59 -117 200 -156 243 -46 50
-126 148 -258 315 -74 94 -140 177 -147 185 -7 8 -96 121 -199 250 -196 248
-318 401 -346 435 -9 11 -107 135 -218 275 -111 140 -229 284 -263 319 -152
155 -343 249 -587 285 -119 18 -366 18 -484 0z"/>
</g>
</svg>
